<svg id="Capa_1" enable-background="new 0 0 510 510" height="512" viewBox="0 0 510 510" width="512" xmlns="http://www.w3.org/2000/svg" xmlns:xlink="http://www.w3.org/1999/xlink"><linearGradient id="lg1"><stop offset="0" stop-color="#ffda45"/><stop offset="1" stop-color="#ffa425"/></linearGradient><linearGradient id="SVGID_1_" gradientUnits="userSpaceOnUse" x1="67.706" x2="100.481" xlink:href="#lg1" y1="475.226" y2="508.001"/><linearGradient id="lg2"><stop offset="0" stop-color="#ffda45" stop-opacity="0"/><stop offset="1" stop-color="#fcee21"/></linearGradient><linearGradient id="SVGID_2_" gradientUnits="userSpaceOnUse" x1="79.695" x2="56.795" xlink:href="#lg2" y1="487.215" y2="464.315"/><linearGradient id="lg3"><stop offset="0" stop-color="#ffda45" stop-opacity="0"/><stop offset="1" stop-color="#b53759"/></linearGradient><linearGradient id="SVGID_3_" gradientUnits="userSpaceOnUse" x1="78.053" x2="112.837" xlink:href="#lg3" y1="494.393" y2="429.7"/><linearGradient id="SVGID_4_" gradientUnits="userSpaceOnUse" x1="455.984" x2="488.759" y1="134.345" y2="167.12"><stop offset="0" stop-color="#92f37f"/><stop offset="1" stop-color="#4ab272"/></linearGradient><linearGradient id="SVGID_5_" gradientUnits="userSpaceOnUse" x1="467.973" x2="445.072" y1="146.334" y2="123.434"><stop offset="0" stop-color="#92f37f" stop-opacity="0"/><stop offset="1" stop-color="#ffee83"/></linearGradient><linearGradient id="SVGID_6_" gradientUnits="userSpaceOnUse" x1="466.331" x2="501.115" y1="153.512" y2="88.819"><stop offset="0" stop-color="#4ab272" stop-opacity="0"/><stop offset="1" stop-color="#009245"/></linearGradient><linearGradient id="lg4"><stop offset="0" stop-color="#ff7044"/><stop offset="1" stop-color="#f92814"/></linearGradient><linearGradient id="SVGID_7_" gradientUnits="userSpaceOnUse" x1="30.625" x2="184.514" xlink:href="#lg4" y1="293.731" y2="447.62"/><linearGradient id="SVGID_8_" gradientUnits="userSpaceOnUse" x1="60.635" x2="6.557" y1="323.786" y2="269.708"><stop offset="0" stop-color="#ff7044" stop-opacity="0"/><stop offset="1" stop-color="#ffa425"/></linearGradient><linearGradient id="SVGID_9_" gradientTransform="matrix(-1 0 0 -1 -3746 -554)" gradientUnits="userSpaceOnUse" x1="-3852.408" x2="-3755.715" xlink:href="#lg4" y1="-923.516" y2="-826.823"/><linearGradient id="SVGID_10_" gradientUnits="userSpaceOnUse" x1="127.612" x2="84.756" y1="390.72" y2="347.864"><stop offset="0" stop-color="#f92814" stop-opacity="0"/><stop offset="1" stop-color="#c1272d"/></linearGradient><linearGradient id="lg5"><stop offset="0" stop-color="#f9f7fc"/><stop offset="1" stop-color="#f0ddfc"/></linearGradient><linearGradient id="SVGID_11_" gradientUnits="userSpaceOnUse" x1="67.56" x2="90.768" xlink:href="#lg5" y1="325.621" y2="361.013"/><linearGradient id="SVGID_12_" gradientUnits="userSpaceOnUse" x1="460.307" x2="470.65" xlink:href="#lg5" y1="112.569" y2="112.569"/><linearGradient id="SVGID_13_" gradientUnits="userSpaceOnUse" x1="459.004" x2="474.615" y1="113.644" y2="110.642"><stop offset="0" stop-color="#fff"/><stop offset="1" stop-color="#e9edf5" stop-opacity="0"/></linearGradient><linearGradient id="SVGID_14_" gradientUnits="userSpaceOnUse" x1="480.933" x2="457.722" y1="99.473" y2="76.262"><stop offset="0" stop-color="#f0ddfc" stop-opacity="0"/><stop offset=".2889" stop-color="#c8b7e0" stop-opacity=".289"/><stop offset=".5915" stop-color="#a595c8" stop-opacity=".592"/><stop offset=".8395" stop-color="#8f81b8" stop-opacity=".84"/><stop offset="1" stop-color="#8779b3"/></linearGradient><linearGradient id="SVGID_15_" gradientUnits="userSpaceOnUse" x1="448.802" x2="506.436" xlink:href="#lg1" y1="27.85" y2="85.484"/><linearGradient id="SVGID_16_" gradientUnits="userSpaceOnUse" x1="469.885" x2="429.614" xlink:href="#lg2" y1="48.933" y2="8.662"/><linearGradient id="SVGID_17_" gradientUnits="userSpaceOnUse" x1="466.997" x2="528.164" xlink:href="#lg3" y1="61.554" y2="-52.208"/><g fill="#7e8595"><path d="m84.675 497.194h-7.5c-6.903 0-12.5-5.597-12.5-12.5s5.597-12.5 12.5-12.5h7.5c6.903 0 12.5 5.597 12.5 12.5s-5.597 12.5-12.5 12.5z"/><path d="m286.046 497.194h-15.489c-6.903 0-12.5-5.596-12.5-12.5 0-6.903 5.597-12.5 12.5-12.5h15.489c6.903 0 12.5 5.597 12.5 12.5 0 6.904-5.597 12.5-12.5 12.5zm-67.123 0h-15.49c-6.903 0-12.5-5.596-12.5-12.5 0-6.903 5.597-12.5 12.5-12.5h15.49c6.903 0 12.5 5.597 12.5 12.5 0 6.904-5.597 12.5-12.5 12.5zm-67.124 0h-15.49c-6.903 0-12.5-5.596-12.5-12.5 0-6.903 5.597-12.5 12.5-12.5h15.49c6.903 0 12.5 5.597 12.5 12.5 0 6.904-5.597 12.5-12.5 12.5zm183.71-11.956c-4.248 0-8.389-2.166-10.732-6.074-3.55-5.921-1.628-13.598 4.293-17.148 3.761-2.255 7.341-4.875 10.64-7.786 5.175-4.568 13.074-4.075 17.643 1.102s4.075 13.076-1.102 17.644c-4.439 3.918-9.259 7.444-14.325 10.482-2.014 1.206-4.23 1.78-6.417 1.78zm38.717-52.657c-.966 0-1.946-.113-2.927-.348-6.713-1.61-10.85-8.358-9.239-15.071 1.021-4.253 1.653-8.639 1.881-13.034.356-6.895 6.259-12.186 13.13-11.837 6.895.357 12.194 6.236 11.837 13.13-.307 5.921-1.16 11.833-2.537 17.573-1.376 5.733-6.498 9.587-12.145 9.587zm-8.752-64.991c-4.339 0-8.556-2.261-10.863-6.297-2.177-3.807-4.721-7.438-7.563-10.794-4.462-5.269-3.808-13.156 1.461-17.617 5.268-4.46 13.155-3.808 17.617 1.461 3.826 4.519 7.254 9.411 10.188 14.541 3.427 5.993 1.347 13.629-4.646 17.056-1.958 1.118-4.091 1.65-6.194 1.65zm-51.854-39.797c-1.049 0-2.114-.133-3.176-.411-4.231-1.108-8.603-1.832-12.991-2.149-6.885-.499-12.063-6.485-11.564-13.37.499-6.886 6.488-12.067 13.371-11.564 5.913.428 11.808 1.404 17.519 2.899 6.679 1.749 10.674 8.581 8.925 15.259-1.472 5.617-6.538 9.336-12.084 9.336zm-66.881-2.808c-.155 0-.311-.002-.468-.008-5.929-.219-11.852-.982-17.604-2.269-6.736-1.507-10.977-8.19-9.469-14.927s8.188-10.978 14.928-9.469c4.265.954 8.66 1.52 13.065 1.682 6.899.254 12.286 6.053 12.031 12.952-.247 6.741-5.791 12.039-12.483 12.039zm-59.258-27.543c-3.397 0-6.782-1.376-9.249-4.087-3.985-4.379-7.584-9.144-10.698-14.163-3.64-5.866-1.834-13.572 4.032-17.211s13.571-1.835 17.212 4.032c2.311 3.725 4.983 7.263 7.944 10.516 4.646 5.105 4.273 13.011-.832 17.658-2.395 2.18-5.407 3.255-8.409 3.255zm-21.808-61.593c-.238 0-.477-.007-.717-.021-6.893-.389-12.164-6.292-11.775-13.185.334-5.917 1.215-11.824 2.616-17.558 1.639-6.705 8.403-10.813 15.111-9.174 6.706 1.64 10.813 8.405 9.174 15.111-1.04 4.252-1.692 8.636-1.94 13.029-.376 6.655-5.889 11.798-12.469 11.798zm28.707-58.698c-3.48 0-6.942-1.445-9.414-4.271-4.545-5.197-4.017-13.094 1.181-17.638 4.453-3.895 9.288-7.399 14.369-10.416 5.937-3.522 13.604-1.568 17.13 4.368 3.523 5.937 1.568 13.605-4.368 17.13-3.773 2.24-7.365 4.843-10.674 7.736-2.371 2.074-5.304 3.091-8.224 3.091zm211.755-20.838h-15.49c-6.903 0-12.5-5.597-12.5-12.5 0-6.904 5.597-12.5 12.5-12.5h15.49c6.903 0 12.5 5.596 12.5 12.5s-5.597 12.5-12.5 12.5zm-67.123 0h-15.49c-6.903 0-12.5-5.597-12.5-12.5 0-6.904 5.597-12.5 12.5-12.5h15.49c6.903 0 12.5 5.596 12.5 12.5s-5.597 12.5-12.5 12.5zm-67.124 0h-15.49c-6.903 0-12.5-5.597-12.5-12.5 0-6.904 5.597-12.5 12.5-12.5h15.49c6.903 0 12.5 5.596 12.5 12.5s-5.597 12.5-12.5 12.5z"/><path d="m465.449 156.313h-7.5c-6.903 0-12.5-5.597-12.5-12.5s5.597-12.5 12.5-12.5h7.5c6.903 0 12.5 5.597 12.5 12.5s-5.596 12.5-12.5 12.5z"/></g><circle cx="77.174" cy="484.694" fill="url(#SVGID_1_)" r="25.306"/><circle cx="77.174" cy="484.694" fill="url(#SVGID_2_)" r="21.12"/><path d="m88.494 462.058c1.707 3.406 2.669 7.251 2.669 11.32 0 13.976-11.33 25.306-25.306 25.306-4.069 0-7.914-.962-11.32-2.669 4.156 8.292 12.731 13.985 22.637 13.985 13.976 0 25.306-11.33 25.306-25.306 0-9.906-5.693-18.482-13.986-22.636z" fill="url(#SVGID_3_)"/><circle cx="465.452" cy="143.814" fill="url(#SVGID_4_)" r="25.306"/><circle cx="465.452" cy="143.814" fill="url(#SVGID_5_)" r="21.12"/><path d="m476.772 121.177c1.707 3.406 2.669 7.251 2.669 11.32 0 13.976-11.33 25.306-25.306 25.306-4.069 0-7.914-.962-11.32-2.669 4.155 8.292 12.73 13.986 22.637 13.986 13.976 0 25.306-11.33 25.306-25.306 0-9.907-5.694-18.482-13.986-22.637z" fill="url(#SVGID_6_)"/><path d="m154.3 340.283c0-42.595-34.53-77.126-77.126-77.126-42.41 0-76.697 33.927-77.122 76.335-.321 32.029 18.885 59.607 46.442 71.568 4.611 2.001 8.555 5.277 11.381 9.435l13.8 20.301c2.639 3.882 8.36 3.882 10.998 0l13.799-20.301c2.817-4.144 6.741-7.424 11.339-9.417 27.353-11.853 46.489-39.087 46.489-70.795z" fill="url(#SVGID_7_)"/><path d="m77.174 439.863c-.447 0-1.567-.12-2.321-1.229l-13.799-20.301c-3.245-4.774-7.751-8.509-13.03-10.8-27.103-11.764-44.425-38.457-44.129-68.003.195-19.49 7.894-37.736 21.677-51.377 13.782-13.64 32.11-21.153 51.602-21.153 40.408 0 73.283 32.875 73.283 73.283 0 29.236-17.339 55.641-44.173 67.268-5.249 2.275-9.741 6.003-12.989 10.783l-13.799 20.301c-.754 1.109-1.875 1.228-2.322 1.228z" fill="url(#SVGID_8_)"/><circle cx="77.174" cy="340.283" fill="url(#SVGID_9_)" r="48.481"/><path d="m151.887 359.485-46.061-46.06c-7.165-7.641-17.351-12.417-28.652-12.417-21.691 0-39.275 17.584-39.275 39.275 0 11.302 4.775 21.487 12.417 28.652l48.543 48.543c2.494-2.728 5.537-4.92 8.953-6.4 21.633-9.375 38.124-28.372 44.075-51.593z" fill="url(#SVGID_10_)"/><circle cx="77.174" cy="340.283" fill="url(#SVGID_11_)" r="39.275"/><path d="m465.452 145.836c-2.954 0-5.349-2.395-5.349-5.349v-61.185h10.698v61.185c0 2.955-2.395 5.349-5.349 5.349z" fill="url(#SVGID_12_)"/><path d="m467.143 145.559c2.124-.708 3.658-2.709 3.658-5.072v-61.185h-7.315v61.185c-.001 2.363 1.533 4.364 3.657 5.072z" fill="url(#SVGID_13_)"/><path d="m460.103 88.68 10.698 10.698v-20.076h-10.698z" fill="url(#SVGID_14_)"/><circle cx="465.452" cy="44.5" fill="url(#SVGID_15_)" r="44.5"/><circle cx="465.452" cy="44.5" fill="url(#SVGID_16_)" r="37.139"/><path d="m485.358 4.693c3.001 5.99 4.693 12.75 4.693 19.906 0 24.576-19.923 44.5-44.5 44.5-7.156 0-13.916-1.692-19.906-4.693 7.306 14.582 22.386 24.594 39.807 24.594 24.576 0 44.5-19.923 44.5-44.5 0-17.421-10.012-32.501-24.594-39.807z" fill="url(#SVGID_17_)"/></svg>